<svg width="25" height="25" viewBox="0 0 25 25" fill="none" xmlns="http://www.w3.org/2000/svg">
<circle cx="12.5" cy="12.5" r="12.5" fill="#6F4586"/>
<path d="M4.9375 20.2496C4.66964 20.2496 4.44643 20.1705 4.26786 20.0121C4.08929 19.8538 4 19.6559 4 19.4184V16.2122C4 16.0275 4.06696 15.8658 4.20089 15.727C4.33482 15.5882 4.50595 15.4992 4.71429 15.4602L7.79464 14.906C8.00298 14.8796 8.21518 14.8963 8.43125 14.9559C8.64732 15.0155 8.82202 15.1045 8.95536 15.2227L11.0536 17.0831C12.1845 16.4761 13.2188 15.757 14.1562 14.9258C15.0938 14.0946 15.875 13.204 16.5 12.254L14.3571 10.3145C14.2232 10.1957 14.1375 10.0604 14.1 9.90836C14.0625 9.75636 14.0589 9.58827 14.0893 9.40408L14.6696 6.63332C14.6994 6.4486 14.7961 6.29687 14.9598 6.17812C15.1235 6.05937 15.3095 6 15.5179 6H19.1339C19.4018 6 19.625 6.07916 19.8036 6.23749C19.9821 6.39582 20.0714 6.59374 20.0714 6.83123C20.0714 8.53327 19.6435 10.1926 18.7875 11.8091C17.9315 13.4256 16.8006 14.8572 15.3946 16.1038C13.9887 17.3504 12.3741 18.3531 10.5509 19.112C8.72768 19.871 6.85655 20.2502 4.9375 20.2496Z" fill="white"/>
</svg>
